<svg width="331" height="328" viewBox="0 0 331 328" fill="none" xmlns="http://www.w3.org/2000/svg">
<g clip-path="url(#clip0_48_8153)">
<path d="M37.4426 33.481C37.9877 33.2599 38.4049 32.7549 38.4949 32.1006L42.2261 6.93441C42.3783 5.93249 41.7034 4.9571 40.7345 4.75911C39.7655 4.56111 38.8547 5.22606 38.7025 6.22799L34.9822 31.3897C34.83 32.3917 35.5049 33.367 36.4738 33.565C36.8165 33.6275 37.1483 33.6004 37.4426 33.481Z" fill="black"/>
<path d="M25.4303 30.1461C26.2915 29.7968 26.7256 28.8014 26.4059 27.8566C24.7884 23.0863 23.8733 17.9506 23.6683 12.594C23.6351 11.5732 22.803 10.7422 21.8232 10.7367C20.8435 10.7311 20.0776 11.5656 20.1107 12.5863C20.3159 18.319 21.306 23.8272 23.0576 28.9595C23.3913 29.9389 24.4103 30.4793 25.3276 30.1744C25.3603 30.1611 25.393 30.1478 25.4257 30.1346L25.4303 30.1461Z" fill="black"/>
<path d="M45.9724 40.5246C46.0596 40.4892 46.1468 40.4539 46.2355 40.391C51.016 37.4044 55.1664 32.8332 58.2385 27.1683C58.7085 26.2926 58.3995 25.1554 57.5395 24.6312C56.6795 24.107 55.5986 24.3842 55.1286 25.2598C52.3414 30.4063 48.5941 34.5319 44.3213 37.2051C43.4929 37.7292 43.2536 38.8605 43.7898 39.7444C44.2621 40.5333 45.2031 40.8501 45.988 40.5317L45.9724 40.5246Z" fill="black"/>
</g>
<g clip-path="url(#clip1_48_8153)">
<path d="M241.635 310.177C241.635 310.177 241.532 310.177 241.474 310.177C188.465 305.568 134.57 305.12 81.2846 308.821C80.2846 308.89 79.4341 308.143 79.3766 307.154C79.3076 306.166 80.0548 305.315 81.0432 305.246C134.513 301.522 188.591 301.982 241.796 306.603C242.785 306.683 243.509 307.557 243.428 308.545C243.348 309.476 242.566 310.177 241.647 310.177H241.635Z" fill="black"/>
<path d="M222.234 286.635C219.751 277.738 214.59 269.175 209.763 262.727C206.717 258.659 203.407 254.751 201.062 250.245C197.729 243.843 196.522 236.544 196.177 229.338C186.419 230.027 176.499 228.464 167.431 224.798C175.58 234.924 182.488 246.061 187.936 257.866C189.028 260.222 190.074 262.785 189.637 265.348C188.407 272.509 173.166 269.773 167.96 271.29C158.293 274.106 149.604 281.359 147.995 291.657C146.432 301.692 147.592 312.243 157.109 317.427C166.615 322.61 183.315 320.656 193.166 319.162C201.568 317.886 213.027 319.415 218.199 312.99C224.509 305.151 224.785 295.738 222.257 286.646L222.234 286.635Z" fill="#FBD637"/>
<path d="M174.626 322.519C167.833 322.519 161.224 321.622 156.27 318.921C147.662 314.232 144.202 304.703 146.282 291.382C148.156 279.348 158.454 272.256 167.465 269.624C169.27 269.095 171.833 269.038 174.799 268.957C180.373 268.808 187.315 268.624 187.924 265.05C188.281 262.992 187.338 260.728 186.35 258.59C180.959 246.912 174.132 235.901 166.063 225.878L161.914 220.729L168.052 223.2C176.867 226.752 186.545 228.281 196.039 227.614L197.798 227.488L197.878 229.246C198.28 237.533 199.809 244.131 202.579 249.441C204.361 252.855 206.797 256.027 209.154 259.096C209.82 259.958 210.475 260.82 211.131 261.682C215.441 267.44 221.153 276.359 223.889 286.164C226.969 297.232 225.498 306.611 219.51 314.048C215.222 319.369 207.659 319.806 200.349 320.243C197.867 320.392 195.533 320.519 193.396 320.852C187.856 321.691 181.155 322.519 174.615 322.519H174.626ZM172.35 228.361C179.04 237.326 184.787 246.981 189.476 257.142C190.695 259.774 191.832 262.601 191.315 265.636C190.223 272.003 181.718 272.233 174.879 272.406C172.27 272.475 169.799 272.543 168.419 272.934C160.42 275.268 151.305 281.474 149.673 291.911C147.811 303.841 150.581 311.91 157.903 315.898C167.741 321.266 186.66 318.392 192.867 317.438C195.166 317.094 197.694 316.944 200.142 316.795C206.705 316.416 213.487 316.013 216.809 311.887C222.061 305.37 223.314 297.025 220.544 287.095C217.958 277.808 212.487 269.279 208.349 263.762C207.705 262.912 207.05 262.061 206.407 261.211C203.958 258.027 201.418 254.728 199.499 251.038C196.706 245.659 195.062 239.142 194.522 231.154C187.051 231.476 179.499 230.522 172.339 228.361H172.35Z" fill="black"/>
<path d="M122.466 253.043C129.8 251.905 138.19 256.56 144.615 252.985C155.902 246.71 166.155 236.767 170.097 224.193C176.327 226.952 181.648 231.722 185.085 237.595C185.487 238.285 185.878 239.043 185.878 239.848C185.878 240.733 185.384 241.537 184.901 242.284C178.798 251.732 170.568 259.801 160.994 265.709C157.27 268.008 149.132 274.605 151.373 279.961C152.661 283.042 155.5 282.145 159.615 284.179C178.373 293.478 170.384 322.523 151.259 324.615C139.408 325.914 120.823 327.166 113.248 316.167C102.582 300.685 96.9616 259.065 121.443 253.25C121.777 253.169 122.122 253.1 122.466 253.054V253.043Z" fill="#FBD637"/>
<path d="M138.42 327.178C128.731 327.178 117.49 325.351 111.835 317.133C103.846 305.535 99.134 281.778 105.111 266.203C108.122 258.388 113.628 253.319 121.041 251.56C121.421 251.468 121.811 251.399 122.202 251.33C125.524 250.813 128.926 251.365 132.225 251.905C136.512 252.606 140.546 253.261 143.776 251.468C156.063 244.629 165.051 234.492 168.453 223.665L169.028 221.814L170.798 222.596C177.35 225.504 182.959 230.515 186.568 236.71C187.108 237.63 187.602 238.641 187.591 239.836C187.591 241.285 186.809 242.48 186.349 243.204C180.12 252.847 171.672 261.135 161.902 267.157C158.27 269.399 151.316 275.306 152.971 279.283C153.431 280.375 154.063 280.582 155.994 281.088C157.189 281.398 158.695 281.789 160.385 282.628C169.109 286.95 173.419 295.926 171.626 306.053C169.706 316.903 161.408 325.236 151.454 326.316C148.247 326.661 143.546 327.178 138.42 327.178ZM122.742 254.744C122.444 254.79 122.145 254.847 121.846 254.916C115.501 256.422 110.961 260.64 108.341 267.445C102.904 281.594 107.203 304.317 114.685 315.179C121.317 324.811 137.627 324.362 151.086 322.891C160.936 321.811 166.879 313.098 168.235 305.455C169.43 298.754 167.591 290.042 158.868 285.72C157.5 285.042 156.247 284.72 155.144 284.433C153.075 283.904 150.937 283.352 149.799 280.628C146.512 272.743 159.546 264.583 160.109 264.238C169.442 258.479 177.522 250.56 183.476 241.342C183.832 240.802 184.166 240.239 184.177 239.825C184.177 239.457 183.913 238.951 183.625 238.457C180.683 233.434 176.292 229.262 171.131 226.584C165.683 241.434 152.845 250.388 145.489 254.491C141.213 256.87 136.374 256.077 131.696 255.319C128.535 254.801 125.535 254.319 122.765 254.744H122.742Z" fill="black"/>
<path d="M44.3886 111.096C45.9747 108.406 46.2736 104.809 45.2162 101.211C44.3426 98.2343 42.6185 95.2574 39.791 91.8207C36.6647 88.0278 33.7683 85.6026 30.6764 84.2118C26.9294 82.5107 22.9066 82.4877 19.9182 84.1543C16.8838 85.8439 15.1942 89.476 15.9988 92.4529C18.1481 92.6368 20.3549 93.2805 22.4468 94.3609C25.1249 95.7402 27.7225 97.832 30.3661 100.751C33.8832 104.636 35.9521 108.36 36.6992 112.119C36.9061 113.142 36.9636 114.165 36.9636 115.176C39.7451 115.464 42.8024 113.82 44.3886 111.107V111.096Z" fill="#FBD637"/>
<path d="M76.2491 148.966C68.4678 145.737 61.9623 139.656 58.1808 132.139C57.3647 132.806 56.5027 133.427 55.5832 133.967C55.3073 134.128 55.0085 134.208 54.7097 134.208C54.1235 134.208 53.5488 133.909 53.2269 133.358C52.7442 132.542 53.0086 131.484 53.8361 131.002C58.3762 128.312 61.6404 123.404 62.3531 118.174C62.5025 117.071 62.5485 115.945 62.6059 114.749C62.6864 112.749 62.7783 110.68 63.376 108.634C64.8357 103.612 68.9161 100.106 72.2952 97.6119C73.0653 97.0487 73.8469 96.497 74.6285 95.9453C77.479 93.9338 80.18 92.0258 82.2144 89.4857C84.4672 86.6697 85.927 82.325 84.088 79.0033C83.2374 77.4631 81.6972 76.1988 79.7433 75.4287C78.0537 74.7621 76.0078 74.4632 73.5711 74.4632C62.468 74.5207 51.7787 81.2791 46.9743 91.2902C46.5605 92.1523 45.5376 92.5086 44.6755 92.0948C43.8135 91.681 43.4572 90.6581 43.8709 89.796C44.3307 88.842 44.8594 87.9225 45.4111 87.0145C45.4111 86.9915 45.4111 86.98 45.4111 86.9571C46.2157 79.1987 45.0088 67.0727 41.94 61.3947C38.8711 55.7168 34.4115 51.5445 29.3657 49.671C27.1934 48.8549 25.159 48.5791 23.3314 48.8319C21.297 49.1078 19.435 50.1078 18.2282 51.5675C16.4926 53.6594 15.8145 57.0271 16.4006 60.5672C16.9179 63.682 18.2167 66.5555 19.5959 69.5898L19.8948 70.2565C21.2166 73.1759 22.5269 76.2793 23.0326 79.601C25.952 79.2217 29.1243 79.7044 32.1242 81.0607C35.7103 82.6928 38.9976 85.4054 42.4802 89.6236C45.618 93.4281 47.5375 96.7958 48.549 100.232C49.8707 104.738 49.4455 109.336 47.3766 112.841C45.2617 116.439 41.4228 118.669 37.5953 118.669C37.239 118.669 36.8712 118.646 36.5149 118.6C35.8597 121.128 34.5264 123.358 32.5955 124.887C28.745 127.944 22.7223 128.002 18.2741 125.013C14.4697 122.462 11.8836 117.99 11.1709 112.761C11.0445 111.818 11.6997 110.945 12.6422 110.818C13.5732 110.692 14.4582 111.347 14.5846 112.29C15.1708 116.554 17.2167 120.14 20.1936 122.151C23.3774 124.289 27.7796 124.301 30.4461 122.186C32.8943 120.243 34.0552 116.462 33.3196 112.772C32.6989 109.646 30.9059 106.462 27.814 103.048C25.4578 100.439 23.182 98.5888 20.8832 97.405C18.1477 96.0027 15.2513 95.497 12.6996 96.0027C9.12503 96.7038 5.87227 99.5658 4.41255 103.29C3.04478 106.761 3.13673 111.025 4.64243 114.991C6.20559 119.094 8.48138 122.519 11.4008 125.163C11.5847 125.335 11.7226 125.542 11.8146 125.76C15.5271 130.875 20.7338 135.013 26.5612 137.438C32.5725 139.932 39.4228 140.691 45.8364 139.576C46.7789 139.415 47.6639 140.036 47.8363 140.978C47.9743 141.794 47.5145 142.587 46.7674 142.875C58.1923 162.839 81.4673 175.425 104.432 174.08C103.972 166.253 102.593 158.196 100.329 150.058C96.9381 151.104 93.3865 151.633 89.8464 151.633C85.2029 151.633 80.5593 150.736 76.2606 148.955L76.2491 148.966Z" fill="#FBD637"/>
<path d="M106.386 177.403C104.616 177.564 102.835 177.633 101.065 177.633C77.5598 177.633 54.3422 164.105 43.1127 143.393C42.0668 143.485 41.0209 143.52 39.9749 143.52C34.9406 143.52 29.8718 142.531 25.2513 140.612C18.6768 137.876 12.8034 133.164 8.70014 127.336C5.56232 124.382 3.11413 120.647 1.42453 116.21C-0.38 111.452 -0.460457 106.291 1.21765 102.027C3.12562 97.1534 7.27491 93.5558 12.0449 92.6133C12.2058 92.5788 12.3552 92.5673 12.5161 92.5444C11.7575 88.2342 14.0793 83.4412 18.263 81.1195C18.7113 80.8666 19.1825 80.6597 19.6653 80.4643C19.263 77.4529 18.0676 74.5795 16.7458 71.66L16.447 70.9934C15.0333 67.89 13.585 64.6833 12.9874 61.1087C12.2288 56.5341 13.1713 52.2469 15.562 49.3505C17.3435 47.1896 19.9296 45.7874 22.8606 45.3851C25.2628 45.0633 27.8604 45.4081 30.5729 46.4195C36.3888 48.5919 41.5036 53.3158 44.9747 59.7409C47.9976 65.3499 49.0895 74.9013 49.078 82.0964C55.2732 75.2921 64.2844 71.0509 73.56 71.0049C76.4794 71.0279 78.9046 71.3842 81.008 72.2117C83.709 73.2692 85.8814 75.0852 87.1112 77.338C89.7088 82.0505 87.8698 87.9123 84.9044 91.6364C82.5711 94.5558 79.5368 96.6936 76.6173 98.7625C75.8587 99.3027 75.0886 99.843 74.3415 100.395C71.3991 102.567 67.859 105.567 66.6866 109.601C66.2039 111.245 66.1349 113.026 66.0545 114.9C65.997 116.118 65.951 117.383 65.7786 118.635C65.2269 122.704 63.4569 126.52 60.8133 129.601C64.1465 136.842 70.2267 142.727 77.5943 145.784C84.5826 148.692 92.5708 148.979 99.7659 146.646C99.9613 146.186 100.341 145.807 100.858 145.646C101.479 145.462 102.111 145.646 102.536 146.06C103.007 146.221 103.398 146.565 103.593 147.06C103.789 147.554 103.72 148.083 103.478 148.519C106.076 157.692 107.593 166.806 107.961 175.61C107.996 176.53 107.306 177.323 106.386 177.403Z" fill="#FBD637"/>
<path d="M58.1808 132.141C61.9623 139.658 68.4678 145.738 76.2492 148.968C80.5479 150.749 85.1914 151.646 89.8349 151.646C93.3865 151.646 96.9266 151.117 100.317 150.071C100.11 149.313 99.9035 148.554 99.6737 147.795C99.5587 147.405 99.5932 147.002 99.7426 146.646C92.5475 148.979 84.5592 148.692 77.571 145.784C70.2034 142.727 64.1232 136.842 60.79 129.601C59.9969 130.52 59.1233 131.371 58.1808 132.152V132.141Z" fill="black"/>
<path d="M103.479 148.531C103.72 148.094 103.777 147.565 103.593 147.071C103.398 146.577 103.007 146.221 102.536 146.071C102.743 146.267 102.915 146.52 102.996 146.818C103.168 147.393 103.318 147.968 103.479 148.531Z" fill="black"/>
<path d="M102.594 149.301C101.847 149.588 101.088 149.841 100.329 150.071C102.594 158.209 103.973 166.266 104.433 174.093C81.468 175.438 58.1929 162.852 46.768 142.887C46.6646 142.933 46.5496 142.956 46.4347 142.979C45.3313 143.175 44.2279 143.313 43.113 143.405C54.354 164.117 77.5715 177.645 101.065 177.645C102.835 177.645 104.617 177.564 106.387 177.415C107.306 177.335 107.996 176.542 107.961 175.622C107.593 166.818 106.076 157.715 103.479 148.531C103.295 148.876 102.996 149.152 102.605 149.301H102.594Z" fill="black"/>
<path d="M102.525 146.061C102.088 145.647 101.456 145.463 100.846 145.647C100.329 145.796 99.9499 146.176 99.7545 146.647C100.295 146.474 100.823 146.29 101.352 146.084C101.743 145.934 102.157 145.946 102.525 146.061Z" fill="black"/>
<path d="M99.6856 147.795C99.9155 148.553 100.122 149.312 100.329 150.07C101.088 149.84 101.846 149.588 102.594 149.3C102.984 149.151 103.283 148.863 103.467 148.53C103.306 147.955 103.157 147.381 102.984 146.818C102.892 146.519 102.731 146.266 102.525 146.07C102.157 145.944 101.743 145.932 101.352 146.093C100.823 146.3 100.283 146.484 99.7546 146.657C99.6051 147.013 99.5707 147.415 99.6856 147.806V147.795Z" fill="black"/>
<path d="M19.8841 70.2469L19.5852 69.5803C18.206 66.5459 16.9072 63.6839 16.3899 60.5576C15.8037 57.0175 16.4819 53.6498 18.2175 51.5579C19.4243 50.0982 21.2863 49.0982 23.3207 48.8224C25.1483 48.5695 27.1827 48.8569 29.355 49.6614C34.3893 51.5464 38.8604 55.7072 41.9293 61.3852C44.9981 67.0746 46.205 79.2006 45.4004 86.9475C45.4004 86.9705 45.4004 86.982 45.4004 87.005C46.4693 85.2579 47.6877 83.6143 49.067 82.0971C49.0785 74.9019 47.9865 65.339 44.9637 59.7415C41.504 53.328 36.3892 48.5925 30.5619 46.4202C27.8493 45.4202 25.2517 45.0754 22.8495 45.3972C19.9185 45.7995 17.3324 47.2017 15.5509 49.3626C13.1602 52.259 12.2177 56.5462 12.9763 61.1208C13.5624 64.6839 15.0222 67.9022 16.4359 71.0055L16.7348 71.6722C18.0565 74.5801 19.2519 77.4536 19.6542 80.4764C20.7231 80.0512 21.8495 79.7523 23.0219 79.6029C22.5047 76.2812 21.1944 73.1664 19.8841 70.2584V70.2469Z" fill="black"/>
<path d="M15.9986 92.427C15.194 89.4501 16.8836 85.818 19.918 84.1284C22.9064 82.4733 26.9293 82.4963 30.6763 84.1859C33.7681 85.5881 36.6646 88.0019 39.7909 91.7948C42.6184 95.22 44.3425 98.2084 45.216 101.185C46.2734 104.783 45.9631 108.38 44.3884 111.07C42.7908 113.783 39.7449 115.426 36.9634 115.139C36.9519 116.323 36.791 117.472 36.5036 118.576C36.86 118.621 37.2278 118.644 37.5841 118.644C41.4 118.644 45.239 116.415 47.3653 112.817C49.4227 109.311 49.848 104.714 48.5377 100.208C47.5263 96.7717 45.6068 93.404 42.469 89.5995C38.9978 85.3813 35.7106 82.6687 32.113 81.0366C29.1246 79.6803 25.9523 79.1976 23.0214 79.5769C23.1018 80.0711 23.1593 80.5768 23.1938 81.0826C23.2627 82.0365 22.5501 82.8641 21.6076 82.9331C20.6421 83.002 19.8261 82.2894 19.7571 81.3469C19.7341 81.0481 19.6881 80.7492 19.6537 80.4504C19.1709 80.6458 18.6997 80.8527 18.2514 81.1055C14.0562 83.4273 11.7344 88.2202 12.5045 92.5304C13.6424 92.3465 14.8147 92.3006 15.9986 92.4155V92.427Z" fill="black"/>
<path d="M21.6075 82.9587C22.5615 82.8898 23.2627 82.0622 23.1937 81.1082C23.1592 80.6025 23.0903 80.0968 23.0213 79.6025C21.8489 79.752 20.7225 80.0508 19.6536 80.4761C19.6881 80.7749 19.7341 81.0738 19.757 81.3726C19.826 82.3266 20.6421 83.0277 21.6075 82.9587Z" fill="black"/>
<path d="M9.05649 124.864C9.83807 124.324 10.907 124.508 11.4587 125.289C11.5736 125.45 11.7001 125.611 11.815 125.772C11.7231 125.554 11.5851 125.347 11.4012 125.174C8.4818 122.531 6.20602 119.106 4.64285 115.002C3.13716 111.037 3.0567 106.773 4.41297 103.302C5.87269 99.5775 9.12545 96.7156 12.7 96.0144C15.2402 95.5202 18.1481 96.0144 20.8837 97.4167C23.1939 98.6006 25.4582 100.451 27.8145 103.06C30.9063 106.474 32.6993 109.658 33.32 112.784C34.0441 116.474 32.8947 120.255 30.4466 122.197C27.78 124.312 23.3778 124.301 20.194 122.163C17.2056 120.152 15.1597 116.565 14.585 112.301C14.4586 111.359 13.5736 110.704 12.6426 110.83C11.7001 110.956 11.0334 111.83 11.1714 112.772C11.884 118.002 14.4816 122.473 18.2746 125.025C22.7227 128.013 28.7455 127.967 32.5959 124.898C34.5269 123.37 35.8602 121.14 36.5153 118.611C36.2739 118.588 36.0441 118.554 35.8027 118.508C34.8717 118.324 34.251 117.427 34.4349 116.485C34.6188 115.554 35.5153 114.945 36.4463 115.117C36.6188 115.152 36.7912 115.152 36.9636 115.163C36.9636 114.152 36.9061 113.129 36.6992 112.106C35.9521 108.347 33.8832 104.635 30.3661 100.738C27.7225 97.819 25.1364 95.7271 22.4468 94.3478C20.355 93.2674 18.1481 92.6238 15.9988 92.4398C16.0333 92.5778 16.0792 92.7272 16.1252 92.8651C16.447 93.7616 15.9758 94.7501 15.0793 95.0719C14.1827 95.3938 13.1943 94.9225 12.8725 94.026C12.7 93.5433 12.5851 93.0605 12.4932 92.5663C12.3322 92.5893 12.1713 92.6008 12.0219 92.6352C7.25196 93.5777 3.10268 97.1753 1.1947 102.049C-0.483407 106.313 -0.40295 111.474 1.40159 116.232C3.09118 120.669 5.53937 124.404 8.67719 127.358C8.65421 127.335 8.63122 127.301 8.61973 127.278C8.07951 126.496 8.26342 125.427 9.045 124.876L9.05649 124.864Z" fill="black"/>
<path d="M15.0907 95.061C15.9873 94.7392 16.4585 93.7507 16.1367 92.8542C16.0907 92.7163 16.0447 92.5784 16.0102 92.4289C14.8149 92.3255 13.6425 92.3715 12.5161 92.5439C12.6081 93.0381 12.723 93.5324 12.8954 94.0036C13.2172 94.9001 14.2057 95.3599 15.1022 95.0495L15.0907 95.061Z" fill="black"/>
<path d="M36.4468 115.108C35.5043 114.936 34.6078 115.545 34.4354 116.476C34.2515 117.407 34.8722 118.315 35.8032 118.499C36.0446 118.545 36.2744 118.568 36.5158 118.602C36.8031 117.499 36.9641 116.349 36.9756 115.166C36.8031 115.143 36.6307 115.154 36.4583 115.12L36.4468 115.108Z" fill="black"/>
<path d="M47.1127 88.8537C47.0552 88.8537 46.9978 88.8537 46.9288 88.8537C45.9978 88.7618 45.3311 87.9457 45.3886 87.0147C44.8369 87.9227 44.3082 88.8422 43.8484 89.7962C43.4347 90.6583 43.8025 91.6812 44.653 92.095C45.5035 92.5088 46.538 92.141 46.9518 91.2904C51.7562 81.2793 62.4455 74.5209 73.5486 74.4634C75.9852 74.4634 78.0312 74.7623 79.7207 75.4289C81.6747 76.199 83.2149 77.4633 84.0654 79.0035C85.8929 82.3252 84.4447 86.6584 82.1919 89.4859C80.1575 92.026 77.468 93.934 74.606 95.9454C73.8244 96.4972 73.0428 97.0489 72.2727 97.6121C68.8935 100.106 64.8132 103.612 63.3535 108.635C62.7558 110.681 62.6639 112.749 62.5834 114.749C62.5374 115.945 62.48 117.071 62.3306 118.175C61.6179 123.404 58.3537 128.324 53.8136 131.002C52.9975 131.484 52.7217 132.542 53.2044 133.358C53.5263 133.898 54.101 134.208 54.6871 134.208C54.986 134.208 55.2848 134.128 55.5607 133.967C56.4802 133.427 57.3422 132.806 58.1583 132.14C57.8939 131.611 57.6411 131.082 57.3997 130.542C57.0204 129.668 57.3997 128.657 58.2847 128.266C59.1582 127.887 60.1697 128.278 60.5605 129.151C60.6295 129.301 60.6984 129.45 60.7674 129.599C63.411 126.519 65.181 122.715 65.7327 118.634C65.9051 117.37 65.9626 116.106 66.0086 114.899C66.089 113.025 66.1695 111.244 66.6407 109.6C67.8131 105.577 71.3532 102.566 74.2957 100.394C75.0428 99.8419 75.8013 99.3017 76.5714 98.7614C79.5024 96.6925 82.5252 94.5547 84.8585 91.6353C87.8239 87.9227 89.6629 82.0609 87.0653 77.3369C85.8355 75.0956 83.6631 73.2681 80.9621 72.2106C78.8587 71.3831 76.4335 71.0268 73.5141 71.0038C64.2385 71.0498 55.2274 75.291 49.0322 82.0954C49.0322 84.0493 48.9517 85.8309 48.7908 87.3021C48.6988 88.1871 47.9517 88.8537 47.0782 88.8537H47.1127Z" fill="black"/>
<path d="M58.3077 128.267C57.4341 128.646 57.0433 129.669 57.4226 130.543C57.664 131.083 57.9169 131.623 58.1812 132.14C59.1237 131.37 59.9972 130.52 60.7903 129.589C60.7214 129.439 60.6524 129.29 60.5834 129.14C60.2041 128.267 59.1812 127.876 58.3077 128.255V128.267Z" fill="black"/>
<path d="M46.9287 88.8423C46.9861 88.8423 47.0436 88.8423 47.1126 88.8423C47.9861 88.8423 48.7332 88.1872 48.8251 87.2906C48.9746 85.8194 49.055 84.0379 49.0665 82.0839C47.6872 83.5896 46.4689 85.2447 45.4 86.9918C45.331 87.9113 46.0091 88.7389 46.9401 88.8308L46.9287 88.8423Z" fill="black"/>
<path d="M43.5836 140.657C44.4226 140.209 45.4686 140.531 45.9168 141.37C46.1927 141.876 46.4686 142.381 46.7559 142.887C47.503 142.588 47.9628 141.807 47.8248 140.991C47.6639 140.048 46.7674 139.427 45.8249 139.588C39.4113 140.703 32.561 139.945 26.5497 137.45C20.7223 135.025 15.5156 130.887 11.8031 125.773C12.056 126.37 11.9755 127.094 11.5042 127.612C11.1594 127.991 10.6997 128.175 10.2284 128.175C9.81465 128.175 9.40087 128.025 9.06755 127.727C8.92962 127.6 8.80319 127.474 8.67676 127.347C12.7801 133.175 18.6534 137.887 25.2279 140.623C29.8484 142.542 34.9057 143.531 39.9515 143.531C40.9975 143.531 42.0549 143.485 43.0894 143.404C43.0204 143.266 42.9399 143.128 42.8595 142.99C42.4112 142.151 42.7331 141.105 43.5721 140.657H43.5836Z" fill="black"/>
<path d="M46.7677 142.889C46.4804 142.384 46.193 141.889 45.9287 141.372C45.4804 140.533 44.4345 140.211 43.5954 140.66C42.7564 141.108 42.4345 142.154 42.8828 142.993C42.9517 143.131 43.0322 143.269 43.1127 143.407C44.2276 143.315 45.3425 143.177 46.4344 142.981C46.5493 142.958 46.6643 142.924 46.7677 142.889Z" fill="black"/>
<path d="M10.2407 128.177C10.712 128.177 11.1832 127.981 11.5165 127.614C11.9878 127.096 12.0682 126.372 11.8154 125.775C11.7004 125.614 11.5625 125.464 11.4591 125.292C10.9189 124.51 9.83844 124.326 9.05686 124.867C8.27527 125.407 8.09137 126.487 8.63158 127.269C8.65457 127.292 8.67756 127.326 8.68905 127.349C8.82698 127.476 8.94192 127.602 9.07984 127.729C9.41317 128.027 9.82694 128.177 10.2407 128.177Z" fill="black"/>
<path d="M195.016 240.156C247.843 240.156 290.668 197.331 290.668 144.504C290.668 91.6773 247.843 48.8525 195.016 48.8525C142.189 48.8525 99.3643 91.6773 99.3643 144.504C99.3643 197.331 142.189 240.156 195.016 240.156Z" fill="#FBD637"/>
<path d="M195.016 241.893C141.317 241.893 97.6399 198.205 97.6399 144.517C97.6399 90.829 141.317 47.1294 195.016 47.1294C248.715 47.1294 292.392 90.8175 292.392 144.505C292.392 198.193 248.704 241.881 195.016 241.881V241.893ZM195.016 50.5776C143.225 50.5776 101.088 92.714 101.088 144.505C101.088 196.297 143.225 238.433 195.016 238.433C246.807 238.433 288.944 196.297 288.944 144.505C288.944 92.714 246.807 50.5776 195.016 50.5776Z" fill="black"/>
<path d="M181.719 240.159C233.689 240.159 275.819 197.334 275.819 144.507C275.819 91.6801 233.689 48.8553 181.719 48.8553C129.749 48.8553 87.6184 91.6801 87.6184 144.507C87.6184 197.334 129.749 240.159 181.719 240.159Z" fill="#FBD637"/>
<path d="M181.879 241.908C178.442 241.908 174.994 241.724 171.546 241.344C119.008 235.644 80.8365 187.565 86.434 134.187C89.181 108.039 101.859 84.6258 122.134 68.2585C141.938 52.2591 166.719 44.949 191.89 47.6845C244.429 53.3855 282.6 101.464 277.002 154.842C274.255 180.99 261.577 204.403 241.314 220.77C224.211 234.563 203.43 241.896 181.879 241.896V241.908ZM181.557 50.5695C160.799 50.5695 140.765 57.6382 124.283 70.9366C104.732 86.7177 92.5028 109.303 89.8477 134.544C84.4341 186.048 121.249 232.425 171.902 237.919C196.154 240.551 220.027 233.517 239.13 218.092C258.681 202.311 270.91 179.726 273.554 154.497C278.968 102.993 242.153 56.6153 191.499 51.1212C188.166 50.7649 184.844 50.581 181.546 50.581L181.557 50.5695Z" fill="black"/>
<path d="M182.787 66.5414C140.432 66.5414 106.088 101.448 106.088 144.504L182.787 66.5414Z" fill="#FBD637"/>
<path d="M106.077 146.229C105.123 146.229 104.353 145.459 104.353 144.505C104.353 100.564 139.535 64.8182 182.775 64.8182C183.729 64.8182 184.499 65.5883 184.499 66.5423C184.499 67.4963 183.729 68.2664 182.775 68.2664C141.432 68.2664 107.801 102.472 107.801 144.505C107.801 145.459 107.031 146.229 106.077 146.229Z" fill="black"/>
<mask id="mask0_48_8153" style="mask-type:luminance" maskUnits="userSpaceOnUse" x="188" y="48" width="103" height="193">
<path d="M195.016 48.8523C192.764 48.8523 190.522 48.9558 188.304 49.1167C189.43 49.1971 190.557 49.2776 191.695 49.3925C243.371 55.0015 280.795 102.126 275.278 154.665C270.359 201.468 233.015 236.731 188.384 239.915C190.58 240.064 192.787 240.168 195.016 240.168C247.842 240.168 290.668 197.341 290.668 144.516C290.668 91.6899 247.842 48.8523 195.016 48.8523Z" fill="white"/>
</mask>
<g mask="url(#mask0_48_8153)">
<path d="M331 76.7267H166.132V80.1749H331V76.7267Z" fill="black"/>
<path d="M331 91.5278H166.132V94.976H331V91.5278Z" fill="black"/>
<path d="M313.713 61.9208H183.419V65.369H313.713V61.9208Z" fill="black"/>
<path d="M320.069 47.1295H177.063V50.5776H320.069V47.1295Z" fill="black"/>
<path d="M278.197 223.65H206.556V227.099H278.197V223.65Z" fill="black"/>
<path d="M278.197 238.444H206.556V241.892H278.197V238.444Z" fill="black"/>
<path d="M282.278 208.847H225.659V212.295H282.278V208.847Z" fill="black"/>
<path d="M296.622 194.043H234.475V197.492H296.622V194.043Z" fill="black"/>
</g>
<path d="M300.66 160.265C301.223 158.334 301.51 156.265 301.51 154.047C301.51 153.093 302.28 152.323 303.234 152.323C304.188 152.323 304.958 153.093 304.958 154.047C304.958 163.817 300.12 171.311 290.568 176.322C290.281 176.46 284.591 179.196 275.051 180.655C270.764 181.529 264.385 185.609 261.811 188.517C259.029 191.666 256.914 194.505 255.627 198.103C252.546 206.735 252.167 214.436 254.374 223.102C256.73 232.32 263.098 239.676 270.983 242.285C271.902 242.596 272.868 242.653 274.017 242.481C274.431 242.423 275.304 241.711 275.856 241.021C274.833 240.033 273.937 238.975 273.178 238.01C269.224 232.941 266.19 226.987 264.408 220.803C264.144 219.884 264.673 218.93 265.592 218.666C266.5 218.401 267.466 218.93 267.73 219.849C269.385 225.608 272.212 231.159 275.902 235.883C277.431 237.837 279.523 240.205 282.235 241.159C284.327 241.895 287.212 241.538 288.511 239.688C287.833 239.182 287.177 238.653 286.568 238.067C281.66 233.389 278.603 226.205 278.201 218.39C278.155 217.436 278.879 216.631 279.833 216.574C280.775 216.539 281.591 217.252 281.649 218.206C282.005 225.16 284.672 231.493 288.948 235.573C293.717 240.113 300.637 241.791 306.177 239.722C309.533 238.469 312.567 235.849 314.694 232.332C315.958 230.24 317.406 226.987 317.096 223.412C316.832 220.321 315.119 217.493 312.728 216.217C310.223 214.873 306.947 215.355 305.269 217.309C304.97 217.654 304.568 217.849 304.142 217.895C303.51 220.436 302.579 222.907 301.315 225.229C301.005 225.803 300.407 226.125 299.798 226.125C299.522 226.125 299.235 226.056 298.97 225.918C298.131 225.458 297.832 224.412 298.292 223.573C303.349 214.367 302.683 202.402 296.637 193.804C296.085 193.023 296.281 191.954 297.051 191.402C297.832 190.862 298.901 191.046 299.453 191.827C300.637 193.517 301.637 195.333 302.453 197.218C305.648 191.437 309.326 189.195 312.361 187.356C319.05 183.322 324.624 176.644 326.567 170.345C328.774 163.185 327.314 155.323 322.831 150.3C319.038 146.047 313.613 144.151 309.74 143.3C304.625 142.185 299.223 142.151 294.005 142.116L284.775 142.059L284.879 155.76C290.039 155.541 296.361 157.691 300.683 160.277L300.66 160.265Z" fill="#FBD637"/>
<path d="M329.854 171.344C327.67 178.401 321.509 185.838 314.142 190.286C310.728 192.355 307.211 194.504 304.154 201.561C304.119 201.63 304.073 201.688 304.039 201.745C305.016 205.469 305.314 209.366 304.947 213.205C307.717 211.653 311.36 211.561 314.36 213.17C317.797 215.021 320.164 218.825 320.532 223.112C320.923 227.618 319.176 231.583 317.636 234.123C315.107 238.296 311.464 241.434 307.372 242.962C305.418 243.686 303.326 244.043 301.2 244.043C297.889 244.043 294.499 243.181 291.43 241.56C289.821 243.962 287.108 244.985 284.453 244.985C283.292 244.985 282.131 244.79 281.097 244.422C280.177 244.1 279.327 243.675 278.545 243.169C277.511 244.479 275.948 245.675 274.534 245.893C273.948 245.985 273.373 246.031 272.821 246.031C271.798 246.031 270.833 245.882 269.902 245.571C260.914 242.594 253.684 234.319 251.04 223.963C248.65 214.595 249.064 206.274 252.385 196.952C253.948 192.585 256.592 189.217 259.224 186.24C262.224 182.849 269.212 178.332 274.442 177.263C283.499 175.873 288.959 173.275 289.005 173.241C293.913 170.666 297.349 167.448 299.361 163.517C295.303 160.942 289.016 158.816 284.442 159.23C284.131 159.586 283.672 159.827 283.154 159.827H283.143C282.292 159.827 281.58 159.207 281.453 158.391C281.407 158.276 281.361 158.149 281.338 158.023C281.269 157.701 281.315 157.379 281.419 157.08L281.304 140.874C281.304 140.196 281.695 139.61 282.258 139.322C282.568 138.885 283.085 138.598 283.66 138.598L293.993 138.656C299.395 138.69 304.981 138.725 310.452 139.92C316.728 141.288 321.889 144.081 325.383 147.989C330.647 153.885 332.394 163.057 329.842 171.344H329.854Z" fill="#FBD637"/>
<path d="M281.453 158.379C281.591 159.195 282.292 159.816 283.143 159.816H283.155C283.672 159.816 284.12 159.574 284.442 159.218C284.074 159.253 283.706 159.299 283.361 159.368C282.557 159.528 281.775 159.092 281.453 158.379Z" fill="black"/>
<path d="M281.419 157.069C281.304 157.356 281.27 157.678 281.339 158.012C281.362 158.138 281.408 158.264 281.454 158.379C281.442 158.287 281.431 158.196 281.419 158.104V157.069Z" fill="black"/>
<path d="M284.855 155.745L284.878 158.09C284.878 158.527 284.718 158.929 284.453 159.228C289.016 158.814 295.315 160.94 299.372 163.515C299.901 162.481 300.338 161.4 300.671 160.262C296.349 157.676 290.028 155.527 284.867 155.745H284.855Z" fill="black"/>
<path d="M284.855 155.747C284.108 155.781 283.384 155.85 282.695 155.988C282.085 156.103 281.626 156.54 281.419 157.08V158.115C281.419 158.207 281.442 158.299 281.453 158.391C281.775 159.103 282.557 159.54 283.361 159.379C283.706 159.31 284.074 159.264 284.442 159.23C284.706 158.919 284.878 158.528 284.867 158.092L284.844 155.747H284.855Z" fill="black"/>
<path d="M310.464 139.92C304.993 138.725 299.407 138.69 294.005 138.656L283.672 138.598C283.097 138.598 282.58 138.885 282.269 139.322C282.499 139.207 282.752 139.138 283.017 139.138H283.028C283.971 139.138 284.741 139.897 284.752 140.851V142.058L293.993 142.115C299.211 142.15 304.614 142.184 309.728 143.299C313.602 144.15 319.027 146.046 322.82 150.299C327.302 155.322 328.762 163.183 326.555 170.344C324.613 176.643 319.038 183.321 312.349 187.355C309.315 189.194 305.648 191.435 302.441 197.217C303.085 198.688 303.614 200.205 304.016 201.768C304.05 201.711 304.096 201.653 304.131 201.584C307.188 194.527 310.717 192.378 314.119 190.309C321.486 185.861 327.647 178.424 329.831 171.367C332.394 163.08 330.636 153.908 325.371 148.012C321.877 144.104 316.717 141.311 310.441 139.943L310.464 139.92Z" fill="black"/>
<path d="M283.648 142.036H284.752V140.841C284.752 139.887 283.97 139.128 283.028 139.128H283.016C282.74 139.128 282.488 139.197 282.269 139.312C282.074 139.588 281.947 139.933 281.947 140.3C281.947 141.254 282.706 142.024 283.66 142.036H283.648Z" fill="black"/>
<path d="M302.568 202.596C302.338 202.596 302.108 202.55 301.878 202.458C301.005 202.078 300.602 201.067 300.982 200.193C301.453 199.102 301.947 198.113 302.453 197.205C301.637 195.32 300.648 193.504 299.453 191.814C298.901 191.033 297.832 190.849 297.051 191.389C296.269 191.941 296.085 193.01 296.637 193.791C302.683 202.389 303.349 214.354 298.292 223.56C297.832 224.4 298.143 225.445 298.97 225.905C299.235 226.043 299.522 226.112 299.798 226.112C300.407 226.112 300.993 225.79 301.315 225.216C302.579 222.905 303.51 220.434 304.142 217.883C303.683 217.928 303.211 217.802 302.844 217.48C302.12 216.86 302.039 215.768 302.66 215.044C303.303 214.285 304.085 213.664 304.947 213.182C305.315 209.343 305.016 205.446 304.039 201.722C303.729 202.251 303.165 202.573 302.568 202.573V202.596Z" fill="black"/>
<path d="M300.982 200.195C300.602 201.068 301.005 202.08 301.878 202.459C302.097 202.551 302.338 202.597 302.568 202.597C303.166 202.597 303.717 202.275 304.039 201.746C303.637 200.195 303.097 198.678 302.464 197.195C301.959 198.103 301.476 199.091 300.993 200.183L300.982 200.195Z" fill="black"/>
<path d="M305.269 217.309C306.947 215.355 310.222 214.872 312.728 216.217C315.119 217.493 316.831 220.32 317.096 223.412C317.406 226.998 315.958 230.24 314.694 232.331C312.567 235.849 309.544 238.469 306.177 239.722C300.637 241.779 293.717 240.113 288.947 235.573C284.672 231.492 282.005 225.159 281.649 218.205C281.603 217.251 280.775 216.539 279.833 216.573C278.879 216.619 278.155 217.435 278.201 218.389C278.603 226.217 281.66 233.389 286.568 238.067C287.189 238.653 287.844 239.193 288.511 239.687C288.534 239.653 288.568 239.63 288.591 239.596C289.108 238.802 290.177 238.573 290.982 239.09C291.775 239.607 292.005 240.676 291.487 241.481C291.476 241.503 291.453 241.526 291.442 241.549C294.51 243.17 297.901 244.032 301.211 244.032C303.338 244.032 305.43 243.676 307.383 242.952C311.475 241.435 315.119 238.297 317.647 234.113C319.176 231.584 320.923 227.619 320.544 223.102C320.176 218.815 317.808 215.01 314.372 213.16C311.36 211.551 307.728 211.642 304.958 213.194C304.809 214.78 304.533 216.343 304.154 217.884C304.579 217.838 304.981 217.642 305.28 217.297L305.269 217.309Z" fill="black"/>
<path d="M302.648 215.067C302.027 215.791 302.108 216.883 302.832 217.503C303.211 217.825 303.682 217.951 304.131 217.906C304.51 216.365 304.786 214.791 304.935 213.216C304.073 213.699 303.292 214.319 302.648 215.078V215.067Z" fill="black"/>
<path d="M282.246 241.158C279.534 240.204 277.431 237.837 275.913 235.883C272.224 231.159 269.396 225.607 267.741 219.849C267.477 218.929 266.523 218.401 265.603 218.665C264.684 218.929 264.155 219.883 264.419 220.803C266.201 226.987 269.235 232.929 273.189 238.009C273.948 238.975 274.833 240.032 275.867 241.021C276.074 240.768 276.247 240.515 276.327 240.296C276.66 239.4 277.649 238.94 278.534 239.273C279.43 239.595 279.89 240.595 279.557 241.48C279.361 242.02 278.994 242.607 278.545 243.17C279.327 243.664 280.178 244.101 281.097 244.423C282.132 244.791 283.281 244.986 284.453 244.986C287.108 244.986 289.832 243.963 291.43 241.561C290.419 241.021 289.442 240.4 288.511 239.699C287.212 241.538 284.327 241.906 282.235 241.17L282.246 241.158Z" fill="black"/>
<path d="M290.982 239.1C290.189 238.583 289.12 238.801 288.591 239.606C288.568 239.64 288.534 239.663 288.511 239.697C289.442 240.399 290.419 241.019 291.43 241.559C291.442 241.536 291.465 241.514 291.476 241.491C291.993 240.697 291.775 239.629 290.97 239.1H290.982Z" fill="black"/>
<path d="M274.017 242.48C272.867 242.653 271.902 242.595 270.982 242.285C263.098 239.676 256.73 232.32 254.374 223.102C252.155 214.447 252.546 206.734 255.627 198.103C256.914 194.493 259.029 191.655 261.81 188.517C264.385 185.597 270.764 181.528 275.051 180.655C284.591 179.195 290.281 176.46 290.568 176.322C300.131 171.31 304.97 163.816 304.958 154.047C304.958 153.093 304.188 152.323 303.234 152.323C302.28 152.323 301.51 153.093 301.51 154.047C301.51 156.276 301.223 158.345 300.659 160.265C301.039 160.483 301.395 160.713 301.74 160.943C302.533 161.472 302.74 162.541 302.211 163.334C301.878 163.828 301.338 164.092 300.774 164.092C300.441 164.092 300.108 164 299.82 163.805C299.671 163.713 299.522 163.61 299.372 163.518C297.361 167.437 293.924 170.667 289.016 173.241C288.959 173.264 283.511 175.873 274.453 177.264C269.212 178.333 262.224 182.85 259.236 186.241C256.604 189.218 253.948 192.586 252.397 196.953C249.075 206.263 248.661 214.596 251.052 223.964C253.696 234.308 260.925 242.595 269.913 245.572C270.844 245.882 271.81 246.032 272.833 246.032C273.385 246.032 273.959 245.986 274.545 245.894C275.959 245.676 277.522 244.48 278.557 243.17C277.557 242.538 276.672 241.802 275.867 241.021C275.304 241.71 274.431 242.411 274.028 242.48H274.017Z" fill="black"/>
<path d="M300.774 164.09C301.326 164.09 301.878 163.826 302.211 163.331C302.74 162.538 302.533 161.469 301.74 160.941C301.395 160.711 301.039 160.481 300.659 160.263C300.326 161.401 299.889 162.481 299.361 163.515C299.51 163.607 299.671 163.711 299.809 163.803C300.108 163.998 300.441 164.09 300.763 164.09H300.774Z" fill="black"/>
<path d="M278.534 239.26C277.637 238.927 276.649 239.398 276.327 240.283C276.246 240.502 276.086 240.755 275.867 241.008C276.672 241.789 277.557 242.525 278.557 243.157C279.005 242.594 279.361 242.007 279.568 241.467C279.89 240.571 279.43 239.582 278.545 239.26H278.534Z" fill="black"/>
<path d="M204.51 281.501C202.981 279.823 191.418 271.03 177.005 272.283L176.706 268.846C192.694 267.444 205.246 277.19 207.05 279.167L204.51 281.501Z" fill="black"/>
<path d="M121.283 299.007C119.076 293.778 121.903 287.927 125.846 284.847C129.857 281.721 134.995 280.663 139.501 280.043C143.5 279.491 148.178 279.089 152.615 280.318L151.696 283.64C147.857 282.583 143.615 282.962 139.972 283.456C135.926 284.02 131.328 284.939 127.961 287.571C125.122 289.778 122.926 294.077 124.455 297.674L121.283 299.019V299.007Z" fill="black"/>
</g>
<defs>
<clipPath id="clip0_48_8153">
<rect width="33.9735" height="36.8047" fill="white" transform="matrix(-0.926677 0.375859 0.375859 0.926677 47.9567 6.10352e-05)"/>
</clipPath>
<clipPath id="clip1_48_8153">
<rect width="331" height="281.898" fill="white" transform="translate(-0.00012207 45.2777)"/>
</clipPath>
</defs>
</svg>
